<?xml version="1.0" encoding="utf-8"?>
<!-- Generator: Adobe Illustrator 26.0.1, SVG Export Plug-In . SVG Version: 6.00 Build 0)  -->
<svg version="1.1" id="Capa_1" xmlns="http://www.w3.org/2000/svg" xmlns:xlink="http://www.w3.org/1999/xlink" x="0px" y="0px"
	 viewBox="0 0 1745.79 832.09" style="enable-background:new 0 0 1745.79 832.09;" xml:space="preserve">
<style type="text/css">
	.st0{opacity:0.5;clip-path:url(#SVGID_00000147181850212826406590000007065604385617786516_);fill:#FBD8D5;}
	.st1{clip-path:url(#SVGID_00000147181850212826406590000007065604385617786516_);fill:#E0552A;}
	.st2{clip-path:url(#SVGID_00000147181850212826406590000007065604385617786516_);fill:#FBD8D5;}
	.st3{clip-path:url(#SVGID_00000147181850212826406590000007065604385617786516_);fill:#9EAEDA;}
	.st4{clip-path:url(#SVGID_00000147181850212826406590000007065604385617786516_);fill:#FBE63B;}
	.st5{clip-path:url(#SVGID_00000147181850212826406590000007065604385617786516_);fill:#3D5DA8;}
	.st6{clip-path:url(#SVGID_00000147181850212826406590000007065604385617786516_);}
	.st7{fill:#DDDAE5;}
	.st8{fill:#3D5DA8;}
	.st9{fill:#FFFFFF;}
</style>
<g>
	<defs>
		<rect id="SVGID_1_" x="0" y="-4.21" width="1745.79" height="840.5"/>
	</defs>
	<clipPath id="SVGID_00000136378070064334371360000001799038143984012217_">
		<use xlink:href="#SVGID_1_"  style="overflow:visible;"/>
	</clipPath>
	
		<rect x="0" y="-4.21" style="opacity:0.5;clip-path:url(#SVGID_00000136378070064334371360000001799038143984012217_);fill:#FBD8D5;" width="1745.79" height="840.5"/>
	<path style="clip-path:url(#SVGID_00000136378070064334371360000001799038143984012217_);fill:#E0552A;" d="M1282.97-279.7
		c0,0-130.02,12.45-527.34,503.33c-118.24,146.08-174.07-16.43-336.38,97.32S22.5,51.48,134.45-190.56s-317.28-396.03-87.29-476.49
		s161.79-327.18,476.13-219.2S1381.6-604.61,1282.97-279.7z"/>
	<path style="clip-path:url(#SVGID_00000136378070064334371360000001799038143984012217_);fill:#FBD8D5;" d="M1055.66-158.3
		c0,0-155.94,202.73-266.41,235.81C658.39,116.69,438.27-57.13,185.49,94.63s-393.71,77.82-415.53-111.29"/>
	<path style="clip-path:url(#SVGID_00000136378070064334371360000001799038143984012217_);fill:#9EAEDA;" d="M1866.72,604.38
		c0,0-264.6-254.48-538.28-104.28s-344.61,293.4-344.61,293.4s-10,104.28-146.39,95.72s-233.68,17.12-242.77,51.36
		c-9.09,34.24,77.29,132.3,180.94,171.21c103.66,38.91,258.23,138.53,395.53,98.84c137.3-39.69,842.89,46.69,864.71-212.46
		C2057.67,739.01,1866.72,604.38,1866.72,604.38z"/>
	<path style="clip-path:url(#SVGID_00000136378070064334371360000001799038143984012217_);fill:#9EAEDA;" d="M1239.33-107.71
		c-11.01,5.3-488.28,310.52-416.44,397.68s183.67-9.34,252.78-15.56s-11.82,53.7,154.58,80.16c166.4,26.46,530.1,82.49,608.3-106.62
		c78.2-189.11-88.2-389.12-88.2-389.12S1633.95-297.6,1239.33-107.71z"/>
	<path style="clip-path:url(#SVGID_00000136378070064334371360000001799038143984012217_);fill:#E0552A;" d="M1593.71,301.63
		c-63.27,0.51-141.74,2.87-188.24,41.23c-30.94,25.53-35.26,74.15-43.93,108.06c-11.4,44.57-20.71,89.67-23.43,135.3
		c-3.68,61.66,29.69,90.44,99.11,98.78c60.75,7.29,121.62,14.24,182.86,17.73c46.54,2.65,97.48,9.59,142.72-3.58
		c45.92-13.37,65.18-50.33,73.53-88.96c10.45-48.32,15.36-97.39,23.77-145.95c7.32-42.27,3.66-89.58-40-116.88
		c-60.24-37.67-138.88-46.35-211.56-45.83C1603.71,301.56,1598.76,301.59,1593.71,301.63z"/>
	<path style="clip-path:url(#SVGID_00000136378070064334371360000001799038143984012217_);fill:#FBE63B;" d="M-3.05,860.02
		c53.11,0.7,102.37-2.62,120.49-2.72c147.08-0.83,294.16,0.1,441.24,0.89c7.91,0.04,16.37-0.05,22.89-3.88
		c5.62-3.3,8.81-8.81,11.6-14.14c18.64-35.52,43.5-81.03,32.45-120.97c-20.53-74.21-168.16-57.76-234.31-61
		c-103.82-5.09-207.67-6.55-311.63-5.81c-58.88,0.42-152.63-17.04-200.18,20.93c-36.49,29.14-45.24,78.73-54.48,118.58
		C-187.72,846.85-90.21,858.87-3.05,860.02z"/>
	<path style="clip-path:url(#SVGID_00000136378070064334371360000001799038143984012217_);fill:#3D5DA8;" d="M-137.67,283.55
		c1.91-4.13,282.51-107.72,371.19-85.13c88.68,22.59,179.86,202.5,145.16,241.01c-34.7,38.52-401.19,190.24-471.64,122.72
		C-163.39,494.63-174.16,362.49-137.67,283.55z"/>
	<g style="clip-path:url(#SVGID_00000136378070064334371360000001799038143984012217_);">
		<path class="st7" d="M-83.95,446.21c30.45,12.69,64.41,8.24,96.91,10.05c18.62,1.04,37.68,1.47,56.31,0.24
			c19.28-1.27,37.23,0.12,56.37,2.57c31.41,4.02,61.2-5.33,92.2-6.93c38.22-1.97,76.7,0.83,114.96,0.26c5.89-0.09,5.9-9.21,0-9.3
			c-38.22-0.58-76.74-0.44-114.96,0.4c-30.99,0.68-64.13,4.54-94.97-0.14c-34.93-5.3-69.84-0.14-104.95-2.98
			c-33.67-2.73-67.12-1.17-100.72-2.8C-88.07,437.32-88.12,444.47-83.95,446.21"/>
		<path class="st7" d="M-74.26,414.69c17.99-0.7,36.4,2.51,54.52,2.62c18.68,0.12,37.17,1.69,55.79,1.89
			c18.65,0.2,37.31,0.03,55.96,0.15c18.68,0.12,36.78,3.3,55.41,4.4c36.55,2.17,73.7,0.36,110.32,0.4
			c8.73,0.01,18.27-1.27,26.92-0.36c6.68,0.7,13.42,2.68,20.13,3.62c10.92,1.53,27.54,8.19,37.92,1.59
			c9.12-5.8,0.24-20.78-8.37-14.54c-4.71,3.41-16.13-1-21.52-1.44c-7.17-0.58-14.18-0.82-21.3-1.86
			c-15.55-2.29-32.17-0.53-47.93-0.51c-35.61,0.03-71.84,2-107.35-0.86c-17.22-1.38-33.55-3.06-50.89-2.98
			c-19.68,0.09-39.58,1.3-59.25,0.36c-32.3-1.56-69.5-5.99-100.77,4.31C-76.34,412.02-76.14,414.76-74.26,414.69"/>
		<path class="st7" d="M-84.22,391.8c19.68,1.81,38.73-2.41,58.37-2.96c19.19-0.54,38.39,0.75,57.58-0.19
			c39.82-1.93,78.92-6.6,118.9-6.49c19.15,0.05,38.58-0.85,57.69,0.41c16.48,1.09,32.57,5.06,49.07,5.78
			c15.91,0.7,31.6,3,47.46,4.37c17.34,1.5,34.8,5.21,52.16,5.04c11.83-0.12,11.73-19.29,0-18.6c-33,1.94-66.56-6.93-99.63-7.69
			c-16.45-0.38-32.61-4.57-49.07-5.54c-19.13-1.12-38.54-0.14-57.69-0.09c-39.98,0.12-79.08,5.01-118.9,7.15
			c-18.4,0.99-36.82-0.17-55.23,0.45c-20.54,0.69-40.44,6.07-60.71,8.8C-90.14,383.05-90.38,391.24-84.22,391.8"/>
		<path class="st7" d="M-69.98,351.57c19.27,0.82,38.21,2.43,57.57,2.21c18.31-0.21,36.61-1.2,54.91-1.67
			c36.18-0.95,72.36-0.28,108.54-0.05c34.48,0.22,68.68,1.79,103.17,1.82c18.89,0.01,37.78,0.02,56.66,0.04
			c8.46,0.01,17.05-0.4,25.5,0.02c8.88,0.44,17.45,2.92,26.33,3.4c9.98,0.54,10.08-15.76,0-15.84c-17.25-0.12-34.44-2.36-51.83-2.36
			c-18.03,0-36.06,0.03-54.09,0.05c-35.36,0.03-70.4-1.38-105.75-1.08c-35.31,0.29-70.64,0.14-105.93,1.54
			c-38.45,1.53-76.77,5.78-115.1,7.63C-72.69,347.43-72.7,351.45-69.98,351.57"/>
		<path class="st7" d="M-71.41,320.26c19.77,1.18,39.44-0.71,59.21-0.61c20.26,0.1,40.53,0.41,60.8,0.46
			c40.67,0.1,81.27-3.77,121.92-2.53c38.09,1.17,76.16,2.99,114.22,0.16c14.25-1.06,27.58-1.22,41.85,0.65
			c13.24,1.74,26.96,4.31,40.39,4.01c9.72-0.22,9.7-15.79,0-15.33c-27.03,1.29-53.65-7.08-80.9-4.12
			c-18.31,1.99-37.36,1.39-55.82,1.63c-20.05,0.27-39.76-0.88-59.74-1.44c-40.65-1.13-81.25,3.18-121.92,3.35
			c-19.41,0.08-38.88-0.3-58.28,0.61c-21.01,0.98-40.93,5.56-61.73,7.89C-74.68,315.35-74.81,320.06-71.41,320.26"/>
		<path class="st7" d="M-62.87,287c37.29,4.56,76.43,2.99,113.99,2.9c40.01-0.1,79.43-6,119.47-5.26
			c19.64,0.36,39.24-1.42,58.89-1.44c18.28-0.02,36.36,2.71,54.59,2.84c17.16,0.13,33.99,3.35,51.04,4.63
			c8.2,0.61,15.51-0.85,23.68,0.53c7.32,1.24,14.97,0.58,22.41,0.58c9.39-0.01,9.41-14.83,0-14.83c-7.71,0-14.76,0.01-22.25-1.27
			c-8.36-1.42-16.59,0.9-24.96-0.06c-16-1.85-31.79-4.31-47.92-4.57c-18.09-0.29-35.93-2.93-54.05-2.86
			c-20.5,0.08-40.95,1.68-61.43,1.47c-39.26-0.39-77.81,5.73-117.01,6.25c-19.87,0.26-39.75-0.11-59.62,0.57
			c-9.64,0.33-19.47,0.15-29.08,1.08c-9.34,0.9-18.36,3.38-27.75,4.17C-66.25,282.01-66.16,286.6-62.87,287"/>
	</g>
	<path style="clip-path:url(#SVGID_00000136378070064334371360000001799038143984012217_);fill:#FBD8D5;" d="M1488.57,620.9
		c40.09-25.67,89.17-40.51,139.58-41.58c36.71-0.78,74.94,5.91,107.65,18.84c35.66,14.09,64.11,35.07,82.27,60.67
		c18.04,25.43,29.71,52.97,33.75,79.63c4.65,30.73-0.89,58.51-16.47,82.58l-2.5-1.18c28.71-44.36,22.27-104.08-17.22-159.76
		c-34.95-49.26-108.51-80-187.4-78.33c-49.81,1.06-98.32,15.72-137.94,41.09c-11,7.04-21.31,14.9-30.77,23.53
		c-28.96,26.4-47.43,58.92-65.3,90.38c-13.65,24.05-27.77,48.91-46.52,70.99c-23.08,27.2-52.36,49.37-87.02,65.88
		c-33.88,16.14-71.19,26.11-110.91,29.61l-0.29-2.43c79.5-7.02,150.91-41.47,195.92-94.5c18.59-21.91,32.66-46.68,46.26-70.63
		c17.96-31.62,36.53-64.32,65.78-90.98C1467.01,635.98,1477.44,628.02,1488.57,620.9"/>
	<g style="clip-path:url(#SVGID_00000136378070064334371360000001799038143984012217_);">
		<g>
			<path class="st8" d="M1167.7,674.35c-0.94-2.68-1.76-5.5-1.22-8.26c0.54-2.76,2.8-5.46,6.01-5.98c4.59-0.74,8.41,2.97,10.65,6.48
				c4.1,6.45,6.49,13.57,8.86,20.62c2.67,7.95,17.2,39.74-1.75,23.88C1179.26,701.9,1172.06,686.68,1167.7,674.35z"/>
			<path class="st8" d="M1186.97,635.9c-1-9.01-1.71-18.97,4.65-26.19c1.4-1.59,3.32-3.06,5.64-3.14c4.4-0.16,6.71,4.39,7.36,8.12
				c2.78,15.81,1.36,49.69-9.23,63.02C1189.09,665,1188.49,649.54,1186.97,635.9z"/>
			<path class="st8" d="M1208.57,664.99c2.06-12.45,4.91-25.28,13.35-35.58c1.46-1.78,4.13-3.63,6.21-2.4
				c0.68,0.4,1.09,1.06,1.42,1.71c3.07,6.13,0.97,13.16-1.27,19.54c-6.53,18.61-12.56,40.72-24.03,57.42
				C1203.81,692.26,1206.38,678.29,1208.57,664.99z"/>
			<path class="st8" d="M1218.37,748.59c0.51-10.44,1.82-22.29,11.51-28.67c1.33-0.88,3.02-1.64,4.62-1.21
				c1.9,0.51,2.7,2.43,3.02,4.11c1.29,6.91-1.06,13.9-3.38,20.61c-5.92,17.12-11.74,34.27-17.77,51.36
				C1215.74,779.6,1218.37,763.95,1218.37,748.59z"/>
			<path class="st8" d="M1187.78,773.95c4.57-1.82,10.19,0.62,12.96,4.23c2.77,3.61,3.44,8.06,4.24,12.32
				c1.88,9.96,4.61,20.01,9.15,29.33C1211.79,815.82,1180,777.04,1187.78,773.95z"/>
			<path class="st8" d="M1231.08,865c1.28-11.75,2.78-24.05,10.41-33.88c2.13-2.74,6.07-5.48,9.42-3.86c1.8,0.87,2.6,2.71,3.09,4.44
				c3.4,12.11-1.97,24.59-6.69,36.37c-8.67,21.62-14.17,43.89-21.8,65.73c-4.16-8.4,0.53-22.42,1.51-31.48
				C1228.36,889.88,1229.72,877.44,1231.08,865z"/>
			<path class="st8" d="M1204.62,921.59c-8.99-14.3-16.25-29.56-19.28-45.59c-0.69-3.66-1.12-7.55,0.62-10.94
				c1.75-3.39,6.41-5.94,10.45-4.62c3.09,1.01,4.79,3.79,6.05,6.41c10.81,22.42,12.15,49.05,18.15,72.6
				C1213.6,939.74,1207.78,926.62,1204.62,921.59z"/>
			<path class="st8" d="M1279.48,702.18c-7.04-10.31-15.56-20.14-19.33-31.64c-1.83-5.6-2.48-11.44-2.73-17.25
				c-0.22-5-0.1-10.19,2.42-14.71c2.52-4.51,8.06-8.15,13.85-7.51c4.61,0.51,8.4,3.59,10.48,7.15c2.08,3.56,2.75,7.58,3.39,11.53
				c4.52,27.87,8.66,55.99,2.63,83.94C1291.49,722.46,1285.95,711.66,1279.48,702.18z"/>
			<path class="st8" d="M1304.82,734.83c4.58-15.09,9.48-30.72,21.19-42.66c1.86-1.89,4.33-3.83,7.19-3.54
				c3.38,0.34,5.26,3.59,5.68,6.48c1.01,6.89-2.65,13.59-6.22,19.83c-9.62,16.85-19.94,38.96-36.98,51.24
				C1297.3,755.73,1301.71,745.07,1304.82,734.83z"/>
			<path class="st8" d="M1268.51,812.78c-6.36-11.36-10.21-23.74-11.28-36.31c-0.16-1.88-0.08-4.11,1.73-5.19
				c2.87-1.72,6.46,1.1,8.25,3.68c13.72,19.77,21.06,48.29,19.89,70.84C1282.86,833.97,1274.71,823.85,1268.51,812.78z"/>
			<path class="st8" d="M1303.17,882.12c5.85-19.81,12.35-40.61,29.12-55.15c2.22-1.93,5.89-3.77,8.25-1.96
				c0.85,0.65,1.24,1.62,1.53,2.56c2.18,7.11,0.25,14.76-3.4,21.41c-3.65,6.65-8.93,12.53-13.87,18.55
				c-10.69,13.02-18.59,27.05-27.63,40.82C1294.91,900.78,1300.96,889.6,1303.17,882.12z"/>
			<path class="st8" d="M1274.81,967.21c-9.62-13.49-15.05-29.15-15.57-44.95c-0.13-3.9,0.5-8.51,4.45-10.44
				c3.24-1.59,7.57-0.55,10.25,1.67c2.68,2.22,4.03,5.35,4.99,8.44c6.47,20.81-1.98,44.18,8.2,64.15
				C1284.4,979.16,1279.21,973.38,1274.81,967.21z"/>
			<g>
				<path class="st8" d="M1290.95,727.25c-3.39,11.98-2.7,25.41-3.31,37.69c-0.67,13.47-1.12,26.93-1.29,40.41
					c-0.35,26.76-0.12,53.54,0.15,80.3c0.26,26.47,0.39,52.95,0.69,79.42c0.15,13.26,0.8,26.51,1.1,39.78
					c0.28,12.34-0.49,25.17,1.67,37.39c0.37,2.1,3.68,1.26,3.94-0.46c1.98-13.01,0.74-26.67,0.72-39.78
					c-0.01-13.27,0.31-26.51,0.13-39.78c-0.36-25.53-0.8-51.05-1.15-76.58c-0.35-25.81-0.96-51.61-1.25-77.41
					c-0.15-13.47-0.25-26.94-0.16-40.41c0.08-13.22,2.32-27.26,0.53-40.37C1292.6,726.66,1291.21,726.35,1290.95,727.25
					L1290.95,727.25z"/>
			</g>
			<g>
				<path class="st8" d="M1291.65,785.6c0.84-4.06,1.71-8.14,3.21-12.06c1.69-4.42,4.32-8.36,6.49-12.59c0.53-1.02-0.99-2.36-2-1.32
					c-6.62,6.82-9.6,17.09-8.99,25.82C1290.41,786.05,1291.52,786.26,1291.65,785.6L1291.65,785.6z"/>
			</g>
			<g>
				<path class="st8" d="M1292.96,922.79c0.13-3.96,0.27-7.7,1.83-11.48c1.57-3.82,4.5-6.58,6.68-10.06
					c0.72-1.15-0.81-2.73-2.23-1.91c-7.97,4.62-11.37,16.11-9.71,23.84C1289.9,924.9,1292.91,924.42,1292.96,922.79L1292.96,922.79z
					"/>
			</g>
			<g>
				<path class="st8" d="M1291.56,999.52c1.19-4.6-0.71-9.71-2.21-14.15c-1.68-4.95-3.61-10.68-7.2-14.86
					c-1.12-1.31-3.72-0.59-3.2,1.15c1.5,5.02,4.44,9.7,6.15,14.71c1.5,4.39,1.92,9.35,4.54,13.36
					C1290.07,1000.39,1291.36,1000.28,1291.56,999.52L1291.56,999.52z"/>
			</g>
			<g>
				<path class="st8" d="M1258.26,1020.61c0.15,0,0.15-0.2,0-0.2C1258.11,1020.41,1258.11,1020.61,1258.26,1020.61L1258.26,1020.61z
					"/>
			</g>
			<g>
				<path class="st8" d="M1257.69,1012.62c-0.7-1.64-1.44-3.27-2.04-4.94c-0.46-1.31-0.57-2.85-1.64-3.88
					c-0.28-0.27-0.77-0.04-0.78,0.28c-0.05,1.29,0.92,2.41,1.5,3.58c0.83,1.68,1.51,3.41,2.23,5.13
					C1257.12,1013.18,1257.86,1013.01,1257.69,1012.62L1257.69,1012.62z"/>
			</g>
			<g>
				<path class="st8" d="M1257.08,1047.89c4.79-9.03,2.86-21.08,1.62-30.65c-1.24-9.58-4.12-18.74-8.57-27.59
					c-5.41-10.77-12.26-21.03-16.91-32.07c-4.97-11.82-5.33-24.06-8.97-36.05c-0.31-1.02-2.17-1.06-2.45,0
					c-5.25,19.68,7.16,41.89,17.73,58.76c6.51,10.38,12.07,20.77,14.92,32.37c1.38,5.64,2.19,11.4,2,17.18
					c-0.2,5.85-2.01,11.73-1.49,17.57C1255.05,1048.26,1256.58,1048.85,1257.08,1047.89L1257.08,1047.89z"/>
			</g>
			<g>
				<path class="st8" d="M1196.08,684.86c0.01,1.03-0.12,2.13,0.23,3.12c0.28,0.78,1.56,0.78,1.84,0c0.36-0.99,0.22-2.09,0.23-3.12
					C1198.39,683.59,1196.07,683.59,1196.08,684.86L1196.08,684.86z"/>
			</g>
			<g>
				<path class="st8" d="M1198.28,671.09c-8.77,43.2,12.13,84.69,14.48,127.64c1.23,22.48,2.02,44.98,3.24,67.47
					c1.19,21.91,1.12,44.66,5.56,66.29c0.02,0.12,0.22,0.08,0.23-0.03c2.48-21.79,0.38-44.41-0.4-66.26
					c-0.8-22.48-1.12-45.04-3.35-67.47c-4.22-42.41-21.15-84.7-18.39-127.48C1199.68,670.59,1198.41,670.42,1198.28,671.09
					L1198.28,671.09z"/>
			</g>
		</g>
	</g>
	<g style="clip-path:url(#SVGID_00000136378070064334371360000001799038143984012217_);">
		<path class="st9" d="M6.62-36.03c5.02,1.45,10.33,1.9,15.6,1.51c11.88-0.88,23.34-5.53,34.98-7.68
			c25.24-4.66,51.17-5.18,76.89-4.46c5.36,0.15,13.31-0.72,18.35,1.1c9.67,3.49-5.11,5.46-8.36,6.05
			c-13.03,2.36-26.15,4.37-39.35,5.92c-27.61,3.25-55.55,4.47-83.39,3.07c12.97,6.74,25.6,15.5,40.98,17.41
			c15.77,1.95,32.29,0.48,48.2,1.24c18.22,0.86,36.41,2.84,54.53,4.66c15.78,1.59,34.63,1.15,49.05,6.92
			c-20.52,8.34-45.71,3.74-67.65,2.28c-25.23-1.68-50.44-3.61-75.65-5.53c9.08,5.96,17.84,13.73,29.81,14.52
			c11.31,0.75,22.62-0.39,33.96,0.75c24.24,2.42,43.54,12.49,63.93,23.22c5.31,2.8,12.14,5.42,16.66,9.06
			c4.91,3.95,1.78,5.76-3.78,5.15c-4.81-0.53-10.08-3.08-14.68-4.48c-6.24-1.91-12.48-3.83-18.74-5.7
			c-24.22-7.24-48.78-13.63-73.22-20.3c8.63,6.49,17.03,13.82,26.17,19.76c10.08,6.56,23.4,8.46,35.27,11.47
			c24.68,6.26,48.92,13.44,71,24.97c5.6,2.92,10.97,6.11,16.23,9.46c1.83,1.17,10.57,6.43,4.64,8.08c-3.4,0.95-11.1-2.95-14.67-3.98
			c-5.81-1.68-11.66-3.27-17.5-4.86c-23.29-6.35-46.74-12.82-67.8-23.67c8.2,8.62,16.4,17.25,24.6,25.87
			c6.58,6.92,12.79,16.28,23.19,19.13c10.77,2.96,21.92,4.01,32.54,7.68c11.11,3.85,21.19,9.43,30.19,16.18
			c9.21,6.91,17.93,14.98,24.92,23.61c7.99,9.85-10.33,1.51-14.23-0.37c-11.28-5.43-22.54-10.89-33.8-16.35
			c-10.11-4.9-20.08-10.56-30.93-14.14c6.02,9.71,11.87,19.52,18,29.18c5.91,9.31,14.93,15.75,22.02,24.21
			c7.16,8.54,9.65,17.93,11.37,28.16c1.52,9.04,5.34,20.72,2.06,29.45c-6.69-6.72-10.65-15.14-15.18-23.07
			c-4.16-7.28-8.33-14.62-11.75-22.19c-3.32-7.36-5.85-15.01-6.38-22.91c-0.58-8.71-6.46-15.23-11.48-22.66
			c-1.75,8.86-1.81,18.07-1.98,27.05c-0.16,8.58,1.78,17.14-0.13,25.68c-7.41-5.72-10.56-15.64-13.16-23.81
			c-2.59-8.13-3.75-16.63-2.23-25.01c0.9-4.96,3.05-9.25,5.03-13.92c1.85-4.4,0.78-6.51-2.21-10.27
			c-8.36-10.49-17.26-20.7-25.88-31.05c5.27,10.89,9.9,22.12,11.85,33.84c1.68,10.09,4.99,25.15-0.05,34.38
			c-6.92-4.95-9.19-12.06-12.73-19.09c-3.2-6.36-5.99-12.84-8.29-19.48c-4.68-13.52-9-28.42-7.82-42.54
			c5.15,11.8,6.13,25.02,10.12,37.23c3.58,10.93,7.49,26.72,17.27,34.93c-0.86-12-1.11-23.92-5.09-35.54
			c-3.51-10.23-9.02-19.86-15.16-29.09c-1.94-2.92-5.14-4.79-7.08-7.39c-1.37-1.84-1.53-4.5-2.96-6.48
			c-3.65-5.03-9.83-9.04-14.65-13.29c-11.01-9.7-22.45-18.82-34.1-27.95c7.48,16.54,22.94,29.75,31.83,45.88
			c7.98,14.49,15.46,30.65,15.55,46.76c-10.17-10.31-17.34-22.59-25.22-34.27c-8.02-11.9-16.09-23.86-23.26-36.16
			c-3.58-6.15-6.76-12.49-8.78-19.16c-1.95-6.44-1.82-10.89-7.96-15.46C84.16,8.54,70.7,0.88,57.88-7.12
			c8.13,17.27,20.25,31.56,32.59,46.69c6.17,7.56,11.17,15.49,15.33,23.99c3.51,7.17,9.27,15.29,7.16,22.92
			c-11.25-5.61-19-20.3-25.97-29.67c-6.76-9.1-13.37-18.31-18.98-27.97c-5.74-9.88-9.22-19.99-13.26-30.4
			c-4.53-11.66-14.51-15.65-26.21-21.4c-2.79-1.37-16.6-9.75-17.5-6.32c-0.52,1.97,9.34,10.34,11.1,12.21
			C29.95-8.76,38-1.06,44.06,8.34c10.93,16.97,21.09,40.81,18.53,60.33c-10.57-2.66-16.24-17.45-20.82-25
			c-5.98-9.87-11.26-20.1-16.64-30.22c-5.34-10.04-10.4-20.23-14.15-30.8c-1.59-4.49-1.91-12.28-5.71-15.89
			c-3.61-3.42-11.94-5.12-16.7-6.92C-6.41-41.19,1.26-37.58,6.62-36.03z M83.14,45.43c7.34,10.16,15.15,20.07,23.14,29.86
			c-2.14-12.36-10.51-22.79-18.47-32.92c-4.51-5.74-9.14-11.42-13.76-17.1c-2.36-2.89-9.81-9.28-10.13-12.1
			c0.32,0.31,0.65,0.61,0.97,0.92C70.55,24.94,75.81,35.29,83.14,45.43z M258.46,188.62c-3.92-9.01-11.6-16.3-19.54-22.89
			c1.47,10.03,6.28,18.54,10.92,27.83c3.89,7.79,7.62,21.5,15.48,26.65c-0.23,0.19-1.13,0.47-0.11,0.17
			C263.36,209.93,262.8,198.61,258.46,188.62z M71.9-8.25c20.57,3.22,41.33,4.5,62.16,6.06c19.42,1.46,39.81,4.76,58.98,1.08
			C153.38-3.14,112.76-11.55,71.9-8.25z M34.87-33.98c7.12,2,18.18,0.67,25.7,0.53c9.78-0.18,19.52-1.29,29.23-2.27
			c9.62-0.97,19.23-2.04,28.84-3.1c4.8-0.53,9.61-1.07,14.41-1.6c0.93-0.1,7.55-0.14,8.01-0.87c1.5-2.38-1.62-1.88-3-2.12
			c-8.51-1.49-18.94-0.42-27.62-0.31c-8.44,0.11-16.87,0.38-25.29,0.98c-16.35,1.16-34.29,2.79-48.96,9.35
			C35.75-33.59,35.31-33.78,34.87-33.98z M107.6,15.3c2.98,0.35,5.57,2.29,8.34,3.28c3.83,1.37,7.96,2.26,11.91,3.35
			c8.3,2.28,16.6,4.55,24.9,6.81c8.82,2.41,17.64,4.81,26.47,7.21c6.78,1.84,15.22,5.4,22.06,5.72c-2.25,0-5.96-3.17-8.1-4.51
			c-4.1-2.57-8.25-5.06-12.62-7.29c-7.07-3.61-14.49-6.76-22.2-9.24c-15.21-4.89-33.25-8.03-49.33-4.91
			C108.56,15.56,108.08,15.43,107.6,15.3z M226.44,74.14c-8.45-4.04-17.22-7.56-26.18-10.67c-17.49-6.07-35.63-10.37-53.82-14.57
			c27.27,19.63,64.02,26.6,97.22,35.74C239.55,82.51,232.26,76.93,226.44,74.14z M12.67-21.14c12.87,30.51,27.89,57.91,46.7,83.79
			C55.62,30.74,42.33,2.65,12.67-21.14z M204.64,108.24c7.23,10.6,26.19,16.33,38.2,22.09c14.76,7.08,29.57,14.09,44.35,21.15
			C267.01,127.83,238.75,112.2,204.64,108.24z M151.38,103.04c-0.51-15.47-17.82-43.23-42.35-68.06
			C119.32,59.06,136.43,80.04,151.38,103.04z M217.23,182.09c-0.16-16.85,2.44-33.76-1.76-50.49
			C204.03,148.9,208.71,165.57,217.23,182.09z"/>
		<path class="st9" d="M-11.38-40.62c-2.58-0.86-5.17-1.73-7.75-2.59C-20.05-40.42-13.29-39.82-11.38-40.62z"/>
	</g>
	<g style="clip-path:url(#SVGID_00000136378070064334371360000001799038143984012217_);">
		<g>
			<path class="st8" d="M1108.83,858.82c-2.72-1.5-2.26-7.45-1.19-17.08c0.45-4.02,0.87-7.83,0.63-9.74
				c-1.93-15.46-7.49-33.61-14.5-47.37c-3.65-7.16-6.71-14.66-9.68-21.93c-4.15-10.15-8.43-20.64-14.32-30.18
				c-5.62-9.1-12.91-17.34-21.68-24.49c-2.34-1.91-4.74-4.01-7.19-6.15c-5.64-4.93-11.48-10.04-17.48-13.64
				c-23.28-13.99-65.08-24.1-93.17-22.56l-7.01,0.38c-26.01,1.38-52.9,2.82-77.34,9.93c-17.98,5.23-41.05,13.21-59.97,28.59
				l-2.7,2.2c-11.14,9.06-22.65,18.43-34.65,26.6c-2.06,1.4-4.16,2.78-6.27,4.15c-7.05,4.6-14.34,9.36-19.97,15.32
				c-29.99,31.72-30.07,83.4-29.38,98.48l-2.79,0.09c-0.7-15.29-0.6-67.7,30-100.07c5.84-6.18,13.27-11.03,20.45-15.72
				c2.09-1.37,4.18-2.73,6.22-4.12c11.91-8.11,23.38-17.44,34.47-26.46l2.71-2.2c19.31-15.69,42.74-23.8,60.99-29.12
				c24.8-7.22,51.88-8.66,78.07-10.05l7-0.38c28.63-1.58,71.23,8.73,94.95,22.99c6.21,3.73,12.14,8.91,17.87,13.93
				c2.43,2.12,4.8,4.2,7.12,6.09c8.98,7.33,16.46,15.78,22.22,25.1c5.99,9.69,10.31,20.27,14.49,30.51c2.95,7.22,6,14.69,9.6,21.76
				c7.12,13.97,12.76,32.39,14.72,48.07c0.27,2.15-0.17,6.07-0.63,10.22c-0.54,4.84-1.54,13.84-0.07,14.85L1108.83,858.82z"/>
			<path class="st8" d="M929.27,841.74l-2.79-0.07c0.23-7.18-2.32-13.72-6.83-17.48c-3.36-2.8-7.7-4.09-12.88-3.85
				c-7.29,0.34-17.48,4.33-21.03,9.72c-1.82,2.77-1.8,5.69,0.06,8.67l-2.46,1.13c-2.31-3.69-2.32-7.49-0.03-10.97
				c4.13-6.28,15.31-10.56,23.3-10.94c6-0.29,11.05,1.24,14.98,4.53C926.73,826.76,929.53,833.78,929.27,841.74z"/>
			<path class="st8" d="M949.96,840.29l-2.75-0.4c1.48-7.53-5.25-14.88-10.66-20.79c-0.75-0.82-1.48-1.61-2.16-2.38
				c-8.25-9.28-16.76-9.67-31.59-7.06c-8.54,1.5-31.21,10.24-36.4,20.34c-1.57,3.06-1.4,5.9,0.55,8.67l-2.4,1.23
				c-2.4-3.44-2.64-7.09-0.7-10.86c5.47-10.64,28.23-19.93,38.4-21.72c15.66-2.76,25.28-2.29,34.38,7.95
				c0.68,0.76,1.4,1.55,2.14,2.36C944.49,823.91,951.65,831.72,949.96,840.29z"/>
			<path class="st8" d="M966.93,846.62l-2.79-0.16c0.8-10.52-2.43-22.96-8.45-32.47c-8.96-14.16-16.91-20.84-38.04-20.25
				c-21.03,0.55-69.99,6.49-70.29,49.58l-2.79-0.01c0.22-31.8,26.83-50.74,73-51.95c22.4-0.55,31.27,6.78,40.58,21.5
				C964.4,822.73,967.76,835.67,966.93,846.62z"/>
			<path class="st8" d="M988.65,852.44c-4.97-19.03-15.3-37.17-27.63-48.52c-16.36-15.05-32.7-19.52-56.4-15.44
				c-3.08,0.53-6.43,1.04-9.93,1.58c-16.1,2.46-36.15,5.52-47.82,13.65c-14.68,10.24-23.3,26.84-23.05,44.42l-2.79,0.03
				c-0.26-18.3,8.75-35.61,24.08-46.3c12.23-8.53,32.67-11.65,49.09-14.15c3.48-0.53,6.8-1.04,9.87-1.57
				c24.79-4.27,41.88,0.4,59,16.15c12.66,11.65,23.24,30.2,28.31,49.63L988.65,852.44z"/>
			<path class="st8" d="M1003.84,852.74c-1.66-2.66-2.48-6.15-3.27-9.51c-0.72-3.08-1.47-6.26-2.84-8.78c-2.1-3.88-5-7.83-7.8-11.65
				c-1.67-2.27-3.39-4.62-4.91-6.91c-8.81-13.27-23.53-31.34-43.69-42.13c-12.9-6.9-33.23-7.06-54.4-0.43
				c-2.23,0.7-4.5,1.39-6.78,2.08c-19.38,5.9-39.42,12.01-50.39,27.06l-1.34,1.84c-10.35,14.16-22.08,30.22-21.56,47.03l-2.79,0.06
				c-0.54-17.53,11.43-33.91,21.99-48.36l1.34-1.84c11.49-15.76,31.99-22.01,51.82-28.05c2.27-0.69,4.53-1.38,6.75-2.08
				c21.97-6.88,43.21-6.64,56.83,0.65c20.65,11.05,35.67,29.46,44.63,42.97c1.49,2.24,3.2,4.57,4.85,6.82
				c2.85,3.88,5.79,7.9,7.97,11.92c1.5,2.78,2.29,6.1,3.04,9.31c0.79,3.35,1.53,6.51,3,8.86L1003.84,852.74z"/>
			<path class="st8" d="M1022.09,860.36c-0.85-0.58-1.47-2.37-3.94-11.27c-0.84-3.01-1.63-5.86-2.15-7.32
				c-1.39-3.89-2.42-7.72-3.42-11.43c-2.17-8.07-4.21-15.69-9.67-23.14c-21.45-29.26-40.48-45.74-58.16-50.38
				c-17.45-4.58-45.73-1.55-64.65,3.8c-28.32,8.01-55.22,16.9-73.15,37.38c-6.2,7.08-9.28,15.65-11.89,23.82
				c-2.53,7.88-6.67,22.61-6.07,32.71l-2.79,0.12c-0.62-10.43,3.6-25.45,6.17-33.47c2.69-8.39,5.86-17.2,12.35-24.62
				c18.4-21.01,46.9-30.4,74.51-38.21c19.34-5.47,48.34-8.54,66.35-3.81c18.35,4.81,37.88,21.62,59.7,51.39
				c5.71,7.78,7.81,15.6,10.03,23.87c0.99,3.67,2,7.46,3.37,11.27c0.55,1.53,1.35,4.42,2.2,7.47c1.03,3.71,2.59,9.33,3.16,10.12
				L1022.09,860.36z"/>
			<path class="st8" d="M1034.8,858.15c-2.67-7.97-4.76-16.56-6.97-25.64c-2.59-10.62-5.26-21.61-8.94-31.52
				c-12.99-35.03-35.34-57.27-66.41-66.1c-25.22-7.17-60.26,5.88-85.85,15.41c-2.21,0.82-4.35,1.62-6.39,2.37
				c-2.1,0.77-4.32,1.57-6.62,2.4c-21.75,7.82-51.53,18.52-61.27,35.81c-9.68,17.19-21.06,45.5-23.15,67.04l-2.78-0.2
				c2.12-21.84,13.62-50.5,23.41-67.88c10.2-18.1,40.54-29.01,62.7-36.98c2.3-0.83,4.51-1.62,6.6-2.39
				c2.05-0.75,4.18-1.55,6.38-2.37c26-9.68,61.61-22.95,87.84-15.49c31.97,9.09,54.91,31.85,68.19,67.65
				c3.72,10.03,6.41,21.07,9.01,31.76c2.2,9.04,4.28,17.58,6.92,25.47L1034.8,858.15z"/>
			<path class="st8" d="M1047,863.64l-0.38-2.2c-3.96-23.12-7.7-44.97-17.44-67.65l-1.55-3.63c-4.89-11.51-9.5-22.39-18.97-31.96
				c-9.77-9.88-20.1-16.9-31.62-24.41l-0.53-0.34c-11.05-7.21-19.04-12.42-33.37-13.03c-16.53-0.7-32.79,2.77-48.52,6.13l-5.15,1.09
				c-33.84,7.12-80.18,16.86-107.44,43.54c-1.49,1.46-3.12,2.96-4.79,4.49c-5.25,4.83-10.68,9.82-13.61,15.19
				c-1.88,3.45-2.55,7.57-3.19,11.56c-0.46,2.82-0.93,5.73-1.82,8.43c-1.12,3.38-2.47,6.99-3.91,10.82
				c-4.53,12.1-9.67,25.82-9.03,36.91l-2.79,0.12c-0.66-11.52,4.56-25.46,9.16-37.75c1.43-3.81,2.77-7.4,3.88-10.74
				c0.84-2.54,1.28-5.24,1.74-8.11c0.67-4.16,1.37-8.47,3.42-12.24c3.12-5.72,8.7-10.85,14.1-15.81c1.65-1.52,3.26-2.99,4.73-4.43
				c27.84-27.25,74.68-37.1,108.88-44.29l5.14-1.09c15.92-3.4,32.37-6.9,49.33-6.19c15.19,0.64,23.47,6.04,34.93,13.52l0.53,0.34
				c11.66,7.6,22.11,14.71,32.06,24.77c9.79,9.9,14.49,20.97,19.47,32.69l1.54,3.62c9.84,22.91,13.6,44.88,17.58,68.13l0.38,2.2
				L1047,863.64z"/>
			<path class="st8" d="M1070.59,865.44c-4.99-13.37-9.27-27.52-13.41-41.21c-5.56-18.39-11.31-37.41-18.97-55.27
				c-10.67-24.88-42.07-49.58-73.03-57.44c-41.63-10.57-75.37-10.01-112.84,1.9c-32.63,10.37-67.16,29.2-97.22,53.04
				c-28.83,22.86-32.06,56.27-32.99,91.39l-2.79-0.05c0.95-35.65,4.25-69.59,33.88-93.09c30.32-24.04,65.17-43.05,98.14-53.52
				c38.07-12.1,72.35-12.68,114.6-1.95c31.73,8.06,63.91,33.38,74.86,58.91c7.71,17.97,13.47,37.05,19.05,55.49
				c4.13,13.65,8.39,27.77,13.36,41.08L1070.59,865.44z"/>
			<path class="st8" d="M1086.7,869.67c-2.93-4.67-3.11-10.79-3.28-16.71c-0.07-2.51-0.14-4.87-0.41-7.09
				c-1.16-9.48-4.09-19.03-6.93-28.27c-0.6-1.95-1.19-3.88-1.77-5.81c-0.78-2.6-1.53-5.22-2.29-7.84
				c-4.91-16.99-9.98-34.55-21.36-48.95c-3.93-4.97-6.29-10.15-8.57-15.16c-1.2-2.65-2.45-5.38-3.91-8.06
				c-4.49-8.2-14.36-17.58-19.85-22.45c-22.74-20.16-60.29-25.49-75.38-26.84c-11.02-0.99-22.09,0.26-32.79,1.47
				c-2.51,0.28-5.02,0.57-7.53,0.82c-5.33,0.54-10.76,0.74-16,0.93c-8.37,0.31-17.02,0.63-25.2,2.36
				c-23.92,5.08-42.87,17.05-56.7,26.92c-7.52,5.36-14.31,11.56-20.88,17.56c-8.79,8.03-17.88,16.33-28.9,22.8
				c-11.31,6.64-19.93,12.64-27.95,22.07c-6.39,7.5-8.03,15.98-9.78,24.95c-0.69,3.56-1.4,7.23-2.44,10.84
				c-1.59,5.56-2.19,12.1-2.76,18.43c-0.87,9.52-1.76,19.36-6.03,26.7l-2.5-1.06c4.02-6.93,4.9-16.53,5.74-25.82
				c0.58-6.42,1.19-13.06,2.83-18.81c1.01-3.52,1.71-7.15,2.4-10.66c1.72-8.85,3.5-18,10.27-25.96c8.23-9.67,17.4-16.04,28.63-22.63
				c10.77-6.32,19.75-14.52,28.44-22.46c6.62-6.05,13.47-12.3,21.13-17.76c14.07-10.03,33.35-22.21,57.82-27.4
				c8.46-1.8,17.25-2.12,25.76-2.43c5.19-0.19,10.57-0.39,15.79-0.92c2.5-0.25,4.99-0.54,7.49-0.82c10.87-1.22,22.1-2.49,33.45-1.48
				c15.39,1.38,53.71,6.83,77.1,27.56c5.61,4.97,15.71,14.58,20.37,23.09c1.5,2.75,2.77,5.52,3.99,8.2
				c2.33,5.11,4.53,9.94,8.28,14.69c11.66,14.76,16.79,32.53,21.75,49.72c0.76,2.62,1.51,5.23,2.29,7.82
				c0.58,1.92,1.17,3.86,1.76,5.8c2.86,9.33,5.82,18.97,7,28.63c0.28,2.31,0.36,4.83,0.43,7.27c0.16,5.64,0.33,11.47,2.95,15.63
				L1086.7,869.67z"/>
		</g>
	</g>
</g>
<g>
	<g>
		<path class="st8" d="M439.43,438.1h-18.57v-12.41c0-3.61-0.2-5.86-0.6-6.76c-0.4-0.89-1.27-1.34-2.62-1.34
			c-1.53,0-2.5,0.54-2.91,1.63c-0.41,1.09-0.62,3.44-0.62,7.06v33.17c0,3.47,0.21,5.73,0.62,6.79c0.41,1.06,1.34,1.59,2.78,1.59
			c1.38,0,2.29-0.53,2.71-1.59c0.43-1.06,0.64-3.55,0.64-7.47v-8.98h18.57v2.78c0,7.39-0.52,12.64-1.57,15.73
			c-1.04,3.09-3.35,5.8-6.93,8.13c-3.57,2.33-7.98,3.49-13.21,3.49c-5.44,0-9.93-0.99-13.45-2.96c-3.53-1.97-5.87-4.7-7.01-8.18
			s-1.72-8.73-1.72-15.73v-20.87c0-5.15,0.18-9.01,0.53-11.58c0.35-2.57,1.4-5.05,3.15-7.43c1.75-2.38,4.18-4.26,7.28-5.62
			c3.1-1.37,6.67-2.05,10.7-2.05c5.47,0,9.98,1.06,13.54,3.17c3.56,2.11,5.9,4.75,7.01,7.91c1.12,3.16,1.68,8.07,1.68,14.73V438.1z"
			/>
		<path class="st8" d="M485.88,440.44v14.34c0,5.26-0.26,9.12-0.79,11.58c-0.53,2.46-1.66,4.75-3.4,6.88
			c-1.74,2.13-3.96,3.71-6.68,4.72c-2.72,1.01-5.84,1.52-9.37,1.52c-3.94,0-7.28-0.43-10.01-1.3s-4.86-2.18-6.37-3.93
			c-1.51-1.75-2.6-3.87-3.24-6.35c-0.65-2.48-0.97-6.21-0.97-11.18v-15c0-5.44,0.59-9.69,1.76-12.75c1.18-3.06,3.29-5.51,6.35-7.37
			c3.06-1.85,6.97-2.78,11.73-2.78c4,0,7.43,0.6,10.3,1.79c2.87,1.19,5.08,2.74,6.64,4.65c1.56,1.91,2.62,3.88,3.2,5.91
			S485.88,436.29,485.88,440.44z M468.06,436.03c0-3-0.16-4.89-0.49-5.67c-0.32-0.78-1.01-1.17-2.07-1.17s-1.76,0.39-2.12,1.17
			c-0.35,0.78-0.53,2.67-0.53,5.67v26.42c0,2.76,0.18,4.57,0.53,5.4c0.35,0.84,1.04,1.26,2.07,1.26c1.06,0,1.76-0.38,2.1-1.15
			c0.34-0.76,0.51-2.41,0.51-4.94V436.03z"/>
		<path class="st8" d="M509.35,419.88l-0.31,5.57c1.38-2.21,3.03-3.87,4.94-4.97c1.91-1.1,4.09-1.66,6.53-1.66
			c4.76,0,8.51,2.21,11.25,6.63c1.5-2.21,3.19-3.87,5.07-4.97c1.88-1.1,3.97-1.66,6.26-1.66c3.03,0,5.54,0.74,7.52,2.21
			c1.99,1.47,3.26,3.27,3.82,5.4c0.56,2.13,0.84,5.6,0.84,10.39v41.6h-17.29v-38.16c0-5-0.17-8.09-0.51-9.29
			c-0.34-1.19-1.12-1.79-2.36-1.79c-1.26,0-2.08,0.59-2.45,1.76c-0.37,1.18-0.55,4.28-0.55,9.31v38.16h-17.29v-37.19
			c0-5.73-0.14-9.18-0.42-10.32c-0.28-1.15-1.05-1.72-2.32-1.72c-0.79,0-1.47,0.3-2.03,0.9c-0.56,0.6-0.87,1.34-0.93,2.21
			c-0.06,0.87-0.09,2.71-0.09,5.54v40.58h-17.29v-58.54H509.35z"/>
		<path class="st8" d="M602.2,419.88v58.54h-18.13l0.31-4.86c-1.24,1.97-2.76,3.45-4.57,4.44c-1.81,0.99-3.89,1.48-6.24,1.48
			c-2.68,0-4.9-0.47-6.66-1.41c-1.76-0.94-3.07-2.19-3.9-3.75c-0.84-1.56-1.36-3.18-1.57-4.87c-0.21-1.69-0.31-5.05-0.31-10.08
			v-39.48h17.82v39.83c0,4.56,0.14,7.26,0.42,8.12c0.28,0.85,1.04,1.28,2.27,1.28c1.32,0,2.11-0.44,2.36-1.32
			c0.25-0.88,0.38-3.72,0.38-8.51v-39.39H602.2z"/>
		<path class="st8" d="M626.73,419.88l-0.31,5.39c1.29-2.15,2.87-3.76,4.74-4.84s4.02-1.61,6.46-1.61c3.06,0,5.56,0.72,7.5,2.16
			s3.19,3.26,3.75,5.45c0.56,2.19,0.84,5.85,0.84,10.96v41.02h-17.82v-40.54c0-4.03-0.13-6.48-0.4-7.37s-1-1.32-2.21-1.32
			c-1.26,0-2.06,0.51-2.38,1.52c-0.32,1.01-0.48,3.73-0.48,8.14v39.57H608.6v-58.54H626.73z"/>
		<path class="st8" d="M674.2,407v9.31h-18.35V407H674.2z M674.2,419.88v58.54h-18.35v-58.54H674.2z"/>
		<path class="st8" d="M721.13,407v71.42h-17.82v-4.25c-1.71,1.77-3.5,3.1-5.38,3.98c-1.88,0.88-3.85,1.33-5.91,1.33
			c-2.76,0-5.16-0.73-7.19-2.18c-2.03-1.46-3.33-3.14-3.9-5.05c-0.57-1.91-0.86-5.03-0.86-9.35V435.5c0-4.5,0.29-7.69,0.86-9.57
			c0.57-1.88,1.89-3.54,3.95-4.96c2.06-1.43,4.51-2.14,7.37-2.14c2.21,0,4.23,0.4,6.07,1.19c1.84,0.8,3.51,1.99,5.01,3.58V407
			H721.13z M703.31,434.62c0-2.15-0.18-3.59-0.55-4.32c-0.37-0.73-1.1-1.1-2.18-1.1c-1.06,0-1.77,0.33-2.14,0.99
			c-0.37,0.66-0.55,2.14-0.55,4.43v28.67c0,2.38,0.18,3.95,0.53,4.7c0.35,0.75,1.03,1.12,2.03,1.12c1.15,0,1.91-0.42,2.29-1.26
			c0.38-0.84,0.57-2.89,0.57-6.15V434.62z"/>
		<path class="st8" d="M743.45,442.56h-16.72v-3.93c0-4.53,0.52-8.02,1.57-10.48c1.04-2.46,3.14-4.62,6.29-6.51
			c3.15-1.88,7.23-2.82,12.26-2.82c6.03,0,10.57,1.07,13.63,3.2c3.06,2.13,4.9,4.75,5.51,7.85c0.62,3.1,0.93,9.49,0.93,19.17v29.38
			h-17.34v-5.22c-1.09,2.09-2.49,3.66-4.21,4.71c-1.72,1.05-3.77,1.57-6.15,1.57c-3.12,0-5.98-0.88-8.58-2.62
			c-2.6-1.75-3.9-5.58-3.9-11.49v-4.81c0-4.38,0.69-7.37,2.07-8.96c1.38-1.59,4.81-3.44,10.28-5.56c5.85-2.29,8.98-3.84,9.4-4.63
			c0.41-0.79,0.62-2.41,0.62-4.85c0-3.06-0.23-5.05-0.68-5.98c-0.46-0.93-1.21-1.39-2.27-1.39c-1.21,0-1.96,0.39-2.25,1.17
			c-0.29,0.78-0.44,2.8-0.44,6.07V442.56z M749.1,450.59c-2.85,2.09-4.51,3.84-4.96,5.25c-0.46,1.41-0.68,3.44-0.68,6.09
			c0,3.03,0.2,4.98,0.6,5.87s1.18,1.32,2.36,1.32c1.12,0,1.85-0.35,2.18-1.04c0.34-0.69,0.51-2.51,0.51-5.45V450.59z"/>
		<path class="st8" d="M813.59,407v71.42h-17.82v-4.25c-1.71,1.77-3.5,3.1-5.38,3.98c-1.88,0.88-3.85,1.33-5.91,1.33
			c-2.76,0-5.16-0.73-7.19-2.18c-2.03-1.46-3.33-3.14-3.9-5.05c-0.57-1.91-0.86-5.03-0.86-9.35V435.5c0-4.5,0.29-7.69,0.86-9.57
			c0.57-1.88,1.89-3.54,3.95-4.96c2.06-1.43,4.51-2.14,7.37-2.14c2.21,0,4.23,0.4,6.07,1.19c1.84,0.8,3.51,1.99,5.01,3.58V407
			H813.59z M795.77,434.62c0-2.15-0.18-3.59-0.55-4.32c-0.37-0.73-1.1-1.1-2.18-1.1c-1.06,0-1.77,0.33-2.14,0.99
			c-0.37,0.66-0.55,2.14-0.55,4.43v28.67c0,2.38,0.18,3.95,0.53,4.7c0.35,0.75,1.03,1.12,2.03,1.12c1.15,0,1.91-0.42,2.29-1.26
			c0.38-0.84,0.57-2.89,0.57-6.15V434.62z"/>
		<path class="st8" d="M879.81,438.1h-18.57v-12.41c0-3.61-0.2-5.86-0.6-6.76c-0.4-0.89-1.27-1.34-2.62-1.34
			c-1.53,0-2.5,0.54-2.91,1.63c-0.41,1.09-0.62,3.44-0.62,7.06v33.17c0,3.47,0.21,5.73,0.62,6.79c0.41,1.06,1.34,1.59,2.78,1.59
			c1.38,0,2.29-0.53,2.71-1.59c0.43-1.06,0.64-3.55,0.64-7.47v-8.98h18.57v2.78c0,7.39-0.52,12.64-1.57,15.73
			c-1.04,3.09-3.35,5.8-6.93,8.13c-3.57,2.33-7.98,3.49-13.21,3.49c-5.44,0-9.93-0.99-13.45-2.96c-3.53-1.97-5.87-4.7-7.01-8.18
			s-1.72-8.73-1.72-15.73v-20.87c0-5.15,0.18-9.01,0.53-11.58c0.35-2.57,1.4-5.05,3.15-7.43c1.75-2.38,4.18-4.26,7.28-5.62
			c3.1-1.37,6.67-2.05,10.7-2.05c5.47,0,9.98,1.06,13.54,3.17c3.56,2.11,5.9,4.75,7.01,7.91c1.12,3.16,1.68,8.07,1.68,14.73V438.1z"
			/>
		<path class="st8" d="M926.26,440.44v14.34c0,5.26-0.26,9.12-0.79,11.58c-0.53,2.46-1.66,4.75-3.4,6.88
			c-1.74,2.13-3.96,3.71-6.68,4.72c-2.72,1.01-5.84,1.52-9.37,1.52c-3.94,0-7.28-0.43-10.01-1.3s-4.86-2.18-6.37-3.93
			c-1.51-1.75-2.6-3.87-3.24-6.35c-0.65-2.48-0.97-6.21-0.97-11.18v-15c0-5.44,0.59-9.69,1.76-12.75c1.18-3.06,3.29-5.51,6.35-7.37
			c3.06-1.85,6.97-2.78,11.73-2.78c4,0,7.43,0.6,10.3,1.79c2.87,1.19,5.08,2.74,6.64,4.65c1.56,1.91,2.62,3.88,3.2,5.91
			S926.26,436.29,926.26,440.44z M908.44,436.03c0-3-0.16-4.89-0.49-5.67c-0.32-0.78-1.01-1.17-2.07-1.17s-1.76,0.39-2.12,1.17
			c-0.35,0.78-0.53,2.67-0.53,5.67v26.42c0,2.76,0.18,4.57,0.53,5.4c0.35,0.84,1.04,1.26,2.07,1.26c1.06,0,1.76-0.38,2.1-1.15
			c0.34-0.76,0.51-2.41,0.51-4.94V436.03z"/>
		<path class="st8" d="M950.48,407v71.42h-18.35V407H950.48z"/>
		<path class="st8" d="M972.8,442.56h-16.72v-3.93c0-4.53,0.52-8.02,1.57-10.48c1.04-2.46,3.14-4.62,6.29-6.51
			c3.15-1.88,7.23-2.82,12.26-2.82c6.03,0,10.57,1.07,13.63,3.2c3.06,2.13,4.9,4.75,5.51,7.85c0.62,3.1,0.93,9.49,0.93,19.17v29.38
			h-17.34v-5.22c-1.09,2.09-2.49,3.66-4.21,4.71c-1.72,1.05-3.77,1.57-6.15,1.57c-3.12,0-5.98-0.88-8.58-2.62
			c-2.6-1.75-3.9-5.58-3.9-11.49v-4.81c0-4.38,0.69-7.37,2.07-8.96s4.81-3.44,10.28-5.56c5.85-2.29,8.98-3.84,9.4-4.63
			c0.41-0.79,0.62-2.41,0.62-4.85c0-3.06-0.23-5.05-0.68-5.98c-0.46-0.93-1.21-1.39-2.27-1.39c-1.21,0-1.96,0.39-2.25,1.17
			c-0.29,0.78-0.44,2.8-0.44,6.07V442.56z M978.45,450.59c-2.85,2.09-4.51,3.84-4.96,5.25c-0.46,1.41-0.68,3.44-0.68,6.09
			c0,3.03,0.2,4.98,0.6,5.87s1.18,1.32,2.36,1.32c1.12,0,1.85-0.35,2.18-1.04c0.34-0.69,0.51-2.51,0.51-5.45V450.59z"/>
		<path class="st8" d="M1020.22,407v16.91c1.47-1.71,3.11-2.98,4.92-3.82c1.81-0.84,3.77-1.26,5.89-1.26c2.44,0,4.56,0.38,6.35,1.15
			c1.79,0.77,3.16,1.84,4.1,3.22c0.94,1.38,1.51,2.73,1.7,4.06c0.19,1.32,0.29,4.15,0.29,8.47v26.38c0,4.29-0.29,7.49-0.86,9.59
			c-0.57,2.1-1.92,3.93-4.04,5.47s-4.63,2.32-7.54,2.32c-2.09,0-4.04-0.46-5.84-1.37s-3.46-2.28-4.96-4.11l-1.15,4.42h-16.67V407
			H1020.22z M1025.65,436.51c0-3.03-0.19-5.01-0.57-5.93c-0.38-0.93-1.13-1.39-2.25-1.39c-1.09,0-1.79,0.4-2.12,1.21
			c-0.32,0.81-0.49,2.85-0.49,6.11v25.23c0,3.15,0.18,5.16,0.55,6.04c0.37,0.88,1.1,1.32,2.18,1.32c1.12,0,1.85-0.46,2.18-1.37
			c0.34-0.91,0.51-3.1,0.51-6.57V436.51z"/>
		<path class="st8" d="M1089.65,440.44v14.34c0,5.26-0.26,9.12-0.79,11.58c-0.53,2.46-1.66,4.75-3.4,6.88
			c-1.74,2.13-3.96,3.71-6.68,4.72c-2.72,1.01-5.85,1.52-9.37,1.52c-3.94,0-7.28-0.43-10.01-1.3c-2.74-0.87-4.86-2.18-6.38-3.93
			c-1.51-1.75-2.6-3.87-3.24-6.35c-0.65-2.48-0.97-6.21-0.97-11.18v-15c0-5.44,0.59-9.69,1.76-12.75c1.18-3.06,3.29-5.51,6.35-7.37
			c3.06-1.85,6.97-2.78,11.73-2.78c4,0,7.43,0.6,10.3,1.79s5.08,2.74,6.64,4.65c1.56,1.91,2.62,3.88,3.2,5.91
			C1089.37,433.2,1089.65,436.29,1089.65,440.44z M1071.83,436.03c0-3-0.16-4.89-0.49-5.67c-0.32-0.78-1.01-1.17-2.07-1.17
			s-1.76,0.39-2.12,1.17c-0.35,0.78-0.53,2.67-0.53,5.67v26.42c0,2.76,0.18,4.57,0.53,5.4c0.35,0.84,1.04,1.26,2.07,1.26
			c1.06,0,1.76-0.38,2.09-1.15s0.51-2.41,0.51-4.94V436.03z"/>
		<path class="st8" d="M1113.34,419.88l-0.71,7.7c2.59-5.51,6.34-8.43,11.25-8.76v20.6c-3.26,0-5.66,0.44-7.19,1.32
			c-1.53,0.88-2.47,2.11-2.82,3.68c-0.35,1.57-0.53,5.2-0.53,10.87v23.12h-17.82v-58.54H1113.34z"/>
		<path class="st8" d="M1143.78,442.56h-16.72v-3.93c0-4.53,0.52-8.02,1.57-10.48c1.04-2.46,3.14-4.62,6.29-6.51
			c3.15-1.88,7.23-2.82,12.26-2.82c6.03,0,10.57,1.07,13.63,3.2c3.06,2.13,4.9,4.75,5.51,7.85c0.62,3.1,0.93,9.49,0.93,19.17v29.38
			h-17.34v-5.22c-1.09,2.09-2.49,3.66-4.21,4.71c-1.72,1.05-3.77,1.57-6.15,1.57c-3.12,0-5.98-0.88-8.58-2.62
			c-2.6-1.75-3.9-5.58-3.9-11.49v-4.81c0-4.38,0.69-7.37,2.07-8.96c1.38-1.59,4.81-3.44,10.28-5.56c5.85-2.29,8.98-3.84,9.4-4.63
			c0.41-0.79,0.62-2.41,0.62-4.85c0-3.06-0.23-5.05-0.68-5.98c-0.46-0.93-1.21-1.39-2.27-1.39c-1.21,0-1.96,0.39-2.25,1.17
			c-0.29,0.78-0.44,2.8-0.44,6.07V442.56z M1149.43,450.59c-2.85,2.09-4.51,3.84-4.96,5.25c-0.46,1.41-0.68,3.44-0.68,6.09
			c0,3.03,0.2,4.98,0.6,5.87c0.4,0.88,1.18,1.32,2.36,1.32c1.12,0,1.84-0.35,2.18-1.04c0.34-0.69,0.51-2.51,0.51-5.45V450.59z"/>
		<path class="st8" d="M1192.17,412.07v9.22h4.81v9.26h-4.81v31.32c0,3.85,0.2,6,0.59,6.44c0.4,0.44,2.05,0.66,4.96,0.66v9.44h-7.19
			c-4.06,0-6.96-0.17-8.69-0.51c-1.74-0.34-3.26-1.12-4.59-2.34c-1.32-1.22-2.15-2.62-2.47-4.19c-0.32-1.57-0.49-5.27-0.49-11.09
			v-29.73h-3.84v-9.26h3.84v-9.22H1192.17z"/>
		<path class="st8" d="M1219.26,407v9.31h-18.35V407H1219.26z M1219.26,419.88v58.54h-18.35v-58.54H1219.26z"/>
		<path class="st8" d="M1262.53,419.88l-8.34,58.54h-23.29l-8.96-58.54h15.92l5.02,42.75c0.39-3.14,1.06-10.8,2.01-22.98
			c0.51-6.79,1.08-13.39,1.73-19.77H1262.53z"/>
		<path class="st8" d="M1281.06,442.56h-16.72v-3.93c0-4.53,0.52-8.02,1.57-10.48c1.04-2.46,3.14-4.62,6.29-6.51
			c3.15-1.88,7.23-2.82,12.26-2.82c6.03,0,10.57,1.07,13.63,3.2c3.06,2.13,4.9,4.75,5.51,7.85c0.62,3.1,0.93,9.49,0.93,19.17v29.38
			h-17.34v-5.22c-1.09,2.09-2.49,3.66-4.21,4.71c-1.72,1.05-3.77,1.57-6.15,1.57c-3.12,0-5.98-0.88-8.58-2.62
			c-2.6-1.75-3.9-5.58-3.9-11.49v-4.81c0-4.38,0.69-7.37,2.07-8.96c1.38-1.59,4.81-3.44,10.28-5.56c5.85-2.29,8.98-3.84,9.4-4.63
			c0.41-0.79,0.62-2.41,0.62-4.85c0-3.06-0.23-5.05-0.68-5.98c-0.46-0.93-1.21-1.39-2.27-1.39c-1.21,0-1.96,0.39-2.25,1.17
			c-0.29,0.78-0.44,2.8-0.44,6.07V442.56z M1286.71,450.59c-2.85,2.09-4.51,3.84-4.96,5.25c-0.46,1.41-0.68,3.44-0.68,6.09
			c0,3.03,0.2,4.98,0.6,5.87c0.4,0.88,1.18,1.32,2.36,1.32c1.12,0,1.84-0.35,2.18-1.04c0.34-0.69,0.51-2.51,0.51-5.45V450.59z"/>
	</g>
</g>
</svg>
